<svg width="48" height="48" fill="none" xmlns="http://www.w3.org/2000/svg"><path d="M46 9.3H28.3V39H46V9.3Z" fill="url(#a)"/><path d="M19.7 9.6H2V39h17.7V9.6Z" fill="url(#b)"/><path opacity=".2" d="M29 21.4s-4.2-2-5-2c-.8 0-5 2-5 2s-11.5 9-17 13.5v1s17-11.8 18.3-13a5.7 5.7 0 0 1 3.7-1.5c.9 0 2.3.3 3.7 1.5C29 24 46 35.9 46 35.9v-1L29 21.5Z" fill="#E2E2E2"/><path opacity=".3" d="M29 21.7s-4.2-2-5-2c-.8 0-5 2-5 2s-11.6 9-17 13.5v1s17-11.7 18.3-13a5.7 5.7 0 0 1 3.7-1.4c.9 0 2.3.2 3.7 1.4A810 810 0 0 0 46 36.1v-.8a1648 1648 0 0 0-17-13.6Z" fill="#DFDFDF"/><path opacity=".4" d="M29 22.1s-4.2-2-5-2c-.8 0-5 2-5 2s-11.7 9-17 13.5v.8s17-11.6 18.3-12.8a5.7 5.7 0 0 1 3.7-1.5c.9 0 2.3.3 3.7 1.5C29 24.8 46 36.3 46 36.3v-.8L29 22.1Z" fill="#DBDBDB"/><path opacity=".6" d="M29 22.5s-4.2-2-5-2c-.8 0-5 2-5 2s-11.8 9-17 13.4v.8S19 25.2 20.3 24a5.7 5.7 0 0 1 3.7-1.5c.9 0 2.3.3 3.7 1.5A726 726 0 0 0 46 36.5v-.7L29 22.5Z" fill="#D7D7D7"/><path opacity=".7" d="M29 22.9s-4.2-2-5-2c-.8 0-5 2-5 2S7 32 2 36.2v.7s17-11.3 18.3-12.5a5.7 5.7 0 0 1 3.7-1.5c.9 0 2.3.2 3.7 1.5C29 25.6 46 36.7 46 36.7v-.6C41.8 32.7 29 23 29 23Z" fill="#D3D3D3"/><path opacity=".9" d="M29 23.2s-4.2-2-5-2c-.8 0-5 2-5 2S7 32.4 2 36.5v.7s17-11.3 18.3-12.5a5.7 5.7 0 0 1 3.7-1.5c.9 0 2.3.3 3.7 1.5C29 26 46 37 46 37v-.5C41.8 33 29 23.2 29 23.2Z" fill="#D0D0D0"/><path d="M29 23.6s-4.2-2-5-2c-.8 0-5 2-5 2S6.9 32.9 2 36.9v.5s17-11 18.3-12.3a5.7 5.7 0 0 1 3.7-1.5c.9 0 2.3.3 3.7 1.5C29 26.3 46 37 46 37v-.4c-4.2-3.4-17-13.1-17-13.1Z" fill="#CCC"/><path d="M46 36.4s-17-12-18.3-13.2a5.7 5.7 0 0 0-3.7-1.5c-.9 0-2.3.3-3.7 1.5C19 24.4 2 36.4 2 36.4V39c0 .5.4 1 1 1h42c.6 0 1-.5 1-1v-2.6Z" fill="url(#c)"/><path opacity=".1" d="M24 27.7c-.9 0-2.3-.3-3.7-1.5A3116 3116 0 0 0 2 11v.5c5.8 5.2 16.1 15.2 17.1 16.1a7.2 7.2 0 0 0 9.8.1L46 11.6v-.5L27.6 26a5.7 5.7 0 0 1-3.6 1.6Z" fill="#E2E2E2"/><path opacity=".3" d="M24 27.3c-1 0-2.4-.3-3.7-1.5L2 10.8v.5c5.8 5.1 16.3 15.2 17.3 16 2 1.9 3.8 2 4.6 2 .9 0 2.8 0 4.9-1.7L46 11.2v-.5L27.6 25.8a5.7 5.7 0 0 1-3.7 1.5Z" fill="#DFDFDF"/><path opacity=".4" d="M23.9 27a6 6 0 0 1-3.7-1.6L2 10.4v.5C7.8 16.1 18.4 26.2 19.4 27c2 1.8 3.7 1.9 4.5 1.9.8 0 2.7.2 4.8-1.6 1-.8 11.7-11.2 17.3-16.5v-.5L27.6 25.4a5.7 5.7 0 0 1-3.7 1.5Z" fill="#DBDBDB"/><path opacity=".6" d="M23.9 26.5c-.9 0-2.3-.2-3.7-1.5L2 10.1v.4c5.8 5.2 16.5 15.3 17.5 16.2 2 1.8 3.6 1.8 4.4 1.8.8 0 2.6.4 4.7-1.4 1-.9 11.8-11.4 17.4-16.6v-.6L27.5 25a5.7 5.7 0 0 1-3.6 1.5Z" fill="#D7D7D7"/><path opacity=".7" d="M23.8 26.2a6 6 0 0 1-3.7-1.5C18.8 23.5 2 9.8 2 9.8v.4c5.8 5.1 16.7 15.3 17.7 16.2 2 1.7 3.3 1.7 4.2 1.7.8 0 2.5.5 4.6-1.3 1-.8 11.9-11.5 17.5-16.7v-.5l-18.5 15a5.7 5.7 0 0 1-3.7 1.6Z" fill="#D3D3D3"/><path opacity=".9" d="M23.8 25.8c-.9 0-2.3-.3-3.7-1.5L2 9.5v.3L19.8 26c2 1.8 3.2 1.7 4 1.7.9 0 2.5.7 4.6-1.1L46 9.6v-.4l-18.5 15a5.7 5.7 0 0 1-3.7 1.6Z" fill="#D0D0D0"/><path d="M23.7 25.4c-.8 0-2.3-.3-3.6-1.5L2 9.2v.2l18 16.3c2 1.8 3 1.6 3.8 1.6.8 0 2.4.9 4.5-1 1-.8 12-11.7 17.7-17v-.5L27.4 24a5.7 5.7 0 0 1-3.7 1.5Z" fill="#CCC"/><path d="M45 8H3a1 1 0 0 0-1 1v.6l18.3 15.2a5.7 5.7 0 0 0 3.7 1.4c.9 0 2.3-.2 3.7-1.4C29 23.5 46 9.6 46 9.6V9c0-.6-.4-1-1-1Z" fill="url(#d)"/><defs><linearGradient id="a" x1="28.5" y1="24.1" x2="50.3" y2="24.1" gradientUnits="userSpaceOnUse"><stop stop-color="#fff"/><stop offset=".1" stop-color="#FAFAFA"/><stop offset=".4" stop-color="#EBEBEB"/><stop offset=".6" stop-color="#E6E6E6"/><stop offset=".7" stop-color="#E0E0E0"/><stop offset=".8" stop-color="#D1D1D1"/><stop offset=".9" stop-color="#B7B7B7"/><stop offset="1" stop-color="#ABABAB"/></linearGradient><linearGradient id="b" x1="21.5" y1="24.3" x2="-2.3" y2="24.3" gradientUnits="userSpaceOnUse"><stop stop-color="#fff"/><stop offset=".1" stop-color="#FAFAFA"/><stop offset=".4" stop-color="#EBEBEB"/><stop offset=".6" stop-color="#E6E6E6"/><stop offset=".7" stop-color="#E0E0E0"/><stop offset=".8" stop-color="#D1D1D1"/><stop offset=".9" stop-color="#B7B7B7"/><stop offset="1" stop-color="#ABABAB"/></linearGradient><linearGradient id="c" x1="24" y1="28.3" x2="24" y2="42.6" gradientUnits="userSpaceOnUse"><stop stop-color="#EFEAEA"/><stop offset=".1" stop-color="#E9E7E7"/><stop offset=".4" stop-color="#E6E6E6"/><stop offset=".5" stop-color="#DFDFDF"/><stop offset=".7" stop-color="#CBCBCB"/><stop offset="1" stop-color="#ABABAB"/></linearGradient><linearGradient id="d" x1="24" y1="17.1" x2="24" y2="-2.9" gradientUnits="userSpaceOnUse"><stop stop-color="#fff"/><stop offset=".6" stop-color="#E6E6E6"/><stop offset=".7" stop-color="#DFDFDF"/><stop offset=".8" stop-color="#CBCBCB"/><stop offset="1" stop-color="#ABABAB"/></linearGradient></defs></svg>