<svg width="32" height="32" fill="none" xmlns="http://www.w3.org/2000/svg"><path fill-rule="evenodd" clip-rule="evenodd" d="M16 32a16 16 0 1 0 0-32 16 16 0 0 0 0 32Zm-4.01-9.6c.29 0 .52-.23.52-.51v-9.16a.51.51 0 0 0-.52-.52h-2.2a.51.51 0 0 0-.52.52v9.16c0 .28.24.5.52.5H12ZM8.8 9.27c0 1.15.94 2.08 2.1 2.08a2.08 2.08 0 1 0 0-4.15c-1.16 0-2.1.93-2.1 2.07ZM23.53 22.4c.26 0 .47-.21.47-.47v-4.47c0-1.93 0-5.4-3.76-5.4-1.7 0-2.5.62-3.04 1.42v-.8a.47.47 0 0 0-.48-.47h-2.28a.47.47 0 0 0-.48.48v9.24c0 .26.22.47.48.47h2.28c.26 0 .48-.21.48-.47v-4.96c.06-.66.35-2.15 1.8-2.15 1.74 0 1.7 1.86 1.7 2.65v4.46c0 .26.2.47.47.47h2.36Z" fill="#244ba8"/></svg>
