<svg width="160" height="40" fill="#244BA8" xmlns="http://www.w3.org/2000/svg"><path d="M20 0a20 20 0 100 40 20 20 0 000-40zm-4.4 20.42c-.1.02-.2.04-.29.04a1.2 1.2 0 01-1.16-.92 3.73 3.73 0 00-7.24 0 1.2 1.2 0 01-2.33-.56 6.12 6.12 0 0111.9 0 1.2 1.2 0 01-.89 1.44zm18.93 0l-.26.04a1.2 1.2 0 01-1.17-.92 3.73 3.73 0 00-7.24 0 1.2 1.2 0 11-2.33-.56 6.12 6.12 0 0111.9 0 1.2 1.2 0 01-.9 1.44zM80.24 18c-2.93-.6-4.4-1.47-4.4-2.61 0-1.1.94-1.96 2.82-1.96 1.67 0 2.93 1.02 3.8 2.66l3.39-2a8.23 8.23 0 00-2.55-2.96 8.67 8.67 0 00-4.71-1.2 8.36 8.36 0 00-4.94 1.52 5.1 5.1 0 00-2.03 4.24c0 3.03 2.17 4.96 6.51 5.8 1.4.28 2.42.6 3.05.97.63.36.95.84.95 1.44a1.69 1.69 0 01-.89 1.51c-.62.37-1.33.55-2.05.54a4.28 4.28 0 01-2.96-1.1 6.2 6.2 0 01-1.3-1.65l-3.8 2.24a9.68 9.68 0 002.61 2.9 8.8 8.8 0 005.37 1.58c2.26 0 4.06-.58 5.39-1.75a5.65 5.65 0 002-4.44c0-1.54-.5-2.77-1.5-3.69-.98-.9-2.57-1.59-4.76-2.03zM137.93 16.07v13h-4.75v-11.5c0-2.32-.97-3.48-2.93-3.48a3.25 3.25 0 00-2.61 1.2c-.67.8-1 1.95-1 3.44v10.34h-4.76V17.65c0-2.37-1-3.56-3.01-3.56a3.19 3.19 0 00-2.5 1.22 4.98 4.98 0 00-1.04 3.35v10.42h-4.75V10.49h4.75v2.47c1.3-2 3.11-3 5.42-3 2.61 0 4.35 1.06 5.2 3.18a6.58 6.58 0 015.95-3.18c1.91 0 3.4.55 4.45 1.65a6.17 6.17 0 011.58 4.46zM98.15 9.92a10.07 10.07 0 00-9.27 6.16 9.93 9.93 0 002.18 10.87 10.05 10.05 0 0017.13-7.05 9.95 9.95 0 00-2.94-7.06 10.06 10.06 0 00-7.1-2.92zm0 15.45a5.53 5.53 0 01-5.08-3.38 5.45 5.45 0 014.01-7.47 5.53 5.53 0 015.65 2.33 5.45 5.45 0 01-4.58 8.52zM60.03 9.92a10.07 10.07 0 00-9.27 6.16 9.93 9.93 0 002.18 10.87 10.05 10.05 0 0017.13-7.05 9.95 9.95 0 00-2.94-7.06 10.06 10.06 0 00-7.1-2.92zm0 15.45a5.53 5.53 0 01-5.08-3.38 5.45 5.45 0 014-7.47 5.53 5.53 0 015.66 2.33 5.45 5.45 0 01-4.58 8.52zM160 20.9c.06-1.04-.24-3.98-1.03-5.65a9.2 9.2 0 00-8.6-5.33c-2.67 0-5.23 1.04-7.12 2.91a9.97 9.97 0 00-2.95 7.07c0 5.07 4.33 9.97 10.47 9.97 3.75 0 7.26-1.9 9.21-4.65l-3.8-2.05a8.1 8.1 0 01-5.62 2.48 5.76 5.76 0 01-5.7-4.76h15.13zm-9.64-7.17c2.76 0 4.44 1.6 5.07 3.86h-10.28l.18-.47a5.47 5.47 0 015.03-3.39z"/></svg>
