<svg width="48" height="48" fill="none" xmlns="http://www.w3.org/2000/svg"><path d="M2 11.4c14.7-5 29.3 5 44 0V24c-.3 4-.7 7.9-1 11.9-14 4.2-28-4.8-42-.6-.3-3.8-.7-7.6-1-11.3V11.4Z" fill="#ED2939"/><path d="M2 24c14.7-5 29.3 5 44 0v12.6c-14.7 5-29.3-5-44 0V24Z" fill="#F4F4F5"/><path d="M12.4 20.7c-.5.2-1.1.2-1.7.3-2.8 0-5-1.6-5-4.2s2.2-5.2 5-5.2c.6 0 1.1.1 1.7.3-2.5 0-4.5 2.2-4.5 4.6-.1 2.4 1.9 4.1 4.5 4.2Z" fill="#fff"/><path d="M11.3 16.4c-.2-.2-.5-.3-.7-.5-.2.2-.5.3-.7.5.1-.3.2-.5.3-.8-.2-.2-.5-.3-.7-.5h.8c.1-.3.2-.5.3-.8.1.3.2.5.3.8h.8c-.2.2-.5.3-.7.5.2.3.2.5.3.8Zm5.4.3c-.2-.2-.5-.4-.7-.6-.2.1-.5.3-.7.4.1-.3.2-.5.3-.8-.2-.2-.5-.4-.7-.6.3 0 .6.1.8.1.1-.3.2-.5.3-.8.1.3.2.5.3.8.3 0 .6.1.8.1-.2.1-.5.3-.7.4.1.5.2.7.3 1ZM14 14.6c-.2-.2-.5-.4-.7-.5-.2.2-.5.3-.7.5.1-.3.2-.5.3-.8-.2-.2-.5-.3-.7-.5h.8c.1-.3.2-.5.3-.8.1.3.2.5.3.8.3 0 .6 0 .8.1-.2.1-.5.3-.7.4.1.3.2.5.3.8Zm-1.7 4.8c-.2-.2-.5-.3-.7-.5-.2.2-.5.3-.7.5.1-.3.2-.5.3-.8-.2-.2-.5-.3-.7-.5h.8c.1-.3.2-.5.3-.8.1.3.2.5.3.8h.8c-.2.2-.5.3-.7.5.2.3.2.5.3.8Zm3.4.2c-.2-.2-.5-.4-.7-.6-.2.1-.5.3-.7.4.1-.3.2-.5.3-.8-.2-.2-.5-.4-.7-.5.3 0 .6 0 .8.1.1-.3.2-.5.3-.8.1.3.2.5.3.8.3 0 .6.1.8.1-.2.1-.5.3-.7.4.1.4.2.6.3.9Z" fill="#fff"/><path opacity=".4" d="M2 11.4v25.2c14.7-5 29.3 5 44 0V11.4c-14.7 5.1-29.3-5-44 0Z" fill="url(#a)"/><path opacity=".5" d="M2 11.4v25.2c14.7-5 29.3 5 44 0V11.4c-14.7 5.1-29.3-5-44 0Z" fill="url(#b)"/><path opacity=".64" d="M2 11.4v25.2c14.7-5 29.3 5 44 0V11.4c-14.7 5.1-29.3-5-44 0Z" fill="url(#c)"/><defs><linearGradient id="a" x1="24" y1="3.88" x2="24" y2="44.05" gradientUnits="userSpaceOnUse"><stop offset="0" stop-opacity=".4"/><stop offset=".06" stop-color="#000510" stop-opacity=".36"/><stop offset=".13" stop-color="#00081B" stop-opacity=".3"/><stop offset=".23" stop-color="#000A22" stop-opacity=".23"/><stop offset=".52" stop-color="#000B24" stop-opacity=".02"/><stop offset=".7" stop-color="#00081A" stop-opacity=".16"/><stop offset="1" stop-opacity=".4"/></linearGradient><linearGradient id="b" x1="2" y1="24" x2="46" y2="24" gradientUnits="userSpaceOnUse"><stop stop-color="#fff" stop-opacity="0"/><stop offset=".23" stop-color="#fff" stop-opacity=".3"/><stop offset=".4" stop-color="#fff" stop-opacity="0"/><stop offset=".59" stop-color="#fff" stop-opacity="0"/><stop offset=".79" stop-color="#fff" stop-opacity=".3"/><stop offset="1" stop-color="#fff" stop-opacity="0"/></linearGradient><linearGradient id="c" x1="2" y1="24" x2="46" y2="24" gradientUnits="userSpaceOnUse"><stop stop-opacity=".72"/><stop offset=".1" stop-color="#000615" stop-opacity=".35"/><stop offset=".19" stop-color="#000B24" stop-opacity="0"/><stop offset=".38" stop-color="#000B24" stop-opacity=".02"/><stop offset=".41" stop-color="#000819" stop-opacity=".08"/><stop offset=".47" stop-color="#000207" stop-opacity=".21"/><stop offset=".51" stop-opacity=".3"/><stop offset=".58" stop-color="#000104" stop-opacity=".2"/><stop offset=".64" stop-color="#00050F" stop-opacity=".11"/><stop offset=".7" stop-color="#000B23" stop-opacity=".02"/><stop offset=".71" stop-color="#000B24" stop-opacity=".02"/><stop offset=".83" stop-color="#000B24" stop-opacity=".02"/><stop offset=".9" stop-color="#000718" stop-opacity=".31"/><stop offset="1" stop-opacity=".72"/></linearGradient></defs></svg>