<svg width="61" height="61" fill="#244BA8" xmlns="http://www.w3.org/2000/svg"><path d="M30.02 0a30.04 30.04 0 0 0-16.68 5.06A30 30 0 0 0 2.3 18.52a29.98 29.98 0 0 0 6.5 32.7 30.05 30.05 0 0 0 32.72 6.5A30.02 30.02 0 0 0 55 46.67a29.98 29.98 0 0 0-3.74-37.88A30.04 30.04 0 0 0 30.02 0zm-6.61 30.64a1.8 1.8 0 0 1-2.17-1.33 5.59 5.59 0 0 0-5.43-4.26 5.6 5.6 0 0 0-5.44 4.26 1.8 1.8 0 0 1-3.28.51 1.8 1.8 0 0 1-.22-1.35 9.2 9.2 0 0 1 17.87 0 1.8 1.8 0 0 1-1.33 2.16zm28.43 0a1.8 1.8 0 0 1-2.15-1.33 5.59 5.59 0 0 0-5.43-4.27 5.6 5.6 0 0 0-5.44 4.27 1.8 1.8 0 0 1-2.84 1.1 1.8 1.8 0 0 1-.65-1.94 9.2 9.2 0 0 1 17.86 0 1.79 1.79 0 0 1-.7 1.88 1.8 1.8 0 0 1-.65.28z"/></svg>