<svg width="32" height="32" fill="none" xmlns="http://www.w3.org/2000/svg"><path fill-rule="evenodd" clip-rule="evenodd" d="M16 32a16 16 0 1 0 0-32 16 16 0 0 0 0 32Zm7.45-19.75c.38-.09.75-.21 1.1-.36.17-.07.33.1.23.25a6.66 6.66 0 0 1-1.38 1.45.56.56 0 0 0-.22.44v.05a9.33 9.33 0 0 1-5.42 8.29 9.9 9.9 0 0 1-4.06.83 9.76 9.76 0 0 1-4.75-1.23.26.26 0 0 1-.13-.3c.03-.1.13-.19.25-.19h.4c1.28 0 2.51-.36 3.57-1.04a3.42 3.42 0 0 1-2.73-2.26c-.05-.12.07-.25.2-.22a3.22 3.22 0 0 0 .66.05 3.32 3.32 0 0 1-2.02-3.06c0-.13.15-.21.27-.15.25.13.51.23.79.3a3.25 3.25 0 0 1-.56-4.04c.06-.1.21-.11.3-.02a9.15 9.15 0 0 0 6.22 3.2c.04 0 .07-.02.1-.05a.12.12 0 0 0 .03-.1 3.27 3.27 0 0 1 2.33-3.54c.36-.1.73-.15 1.1-.15.84 0 1.65.3 2.28.83a.46.46 0 0 0 .4.1 6.5 6.5 0 0 0 1.68-.68c.15-.08.32.05.27.2-.18.54-.5 1.02-.91 1.4Z" fill="#244ba8"/></svg>
